HIERARCHY
ROOT joint_Root
{
	OFFSET 0.0 0.0 0.0
	CHANNELS 6 Xposition Yposition Zposition Zrotation Xrotation Yrotation 
	JOINT Hips
	{
		OFFSET 4.5925 91.4895 -427.239
		CHANNELS 6 Xposition Yposition Zposition Zrotation Xrotation Yrotation 
		JOINT Spine
		{
			OFFSET 15.7357 0.0 0.0
			CHANNELS 6 Xposition Yposition Zposition Zrotation Xrotation Yrotation 
			JOINT Chest
			{
				OFFSET 8.98455 -0.406207 0.0
				CHANNELS 6 Xposition Yposition Zposition Zrotation Xrotation Yrotation 
				JOINT Neck
				{
					OFFSET 16.3773 0.0 0.0
					CHANNELS 6 Xposition Yposition Zposition Zrotation Xrotation Yrotation 
					JOINT Head
					{
						OFFSET 6.45672 0.0 0.0
						CHANNELS 6 Xposition Yposition Zposition Zrotation Xrotation Yrotation 
						End Site
						{
							OFFSET 0.0 0.0 0.0
						}
					}
				}
				JOINT Shoulder_L
				{
					OFFSET 12.9942 -0.242716 4.98039
					CHANNELS 6 Xposition Yposition Zposition Zrotation Xrotation Yrotation 
					JOINT UpperArm_L
					{
						OFFSET 5.34809 0.0 0.0
						CHANNELS 6 Xposition Yposition Zposition Zrotation Xrotation Yrotation 
						JOINT LowerArm_L
						{
							OFFSET 24.3286 1.87007e-05 0.0
							CHANNELS 6 Xposition Yposition Zposition Zrotation Xrotation Yrotation 
							JOINT Hand_L
							{
								OFFSET 22.2916 0.0 0.0
								CHANNELS 6 Xposition Yposition Zposition Zrotation Xrotation Yrotation 
								End Site
								{
									OFFSET 0.0 0.0 0.0
								}
							}
						}
					}
				}
				JOINT Shoulder_R
				{
					OFFSET 12.9945 -0.242716 -4.98039
					CHANNELS 6 Xposition Yposition Zposition Zrotation Xrotation Yrotation 
					JOINT UpperArm_R
					{
						OFFSET -5.34813 0.0 0.0
						CHANNELS 6 Xposition Yposition Zposition Zrotation Xrotation Yrotation 
						JOINT LowerArm_R
						{
							OFFSET -24.3289 0.000322201 0.0
							CHANNELS 6 Xposition Yposition Zposition Zrotation Xrotation Yrotation 
							JOINT Hand_R
							{
								OFFSET -22.2915 -0.000108084 0.0
								CHANNELS 6 Xposition Yposition Zposition Zrotation Xrotation Yrotation 
								End Site
								{
									OFFSET 0.0 0.0 0.0
								}
							}
						}
					}
				}
			}
		}
		JOINT UpperLeg_L
		{
			OFFSET -2.19248 -6.46944 0.0
			CHANNELS 6 Xposition Yposition Zposition Zrotation Xrotation Yrotation 
			JOINT LowerLeg_L
			{
				OFFSET 39.0811 0.0 -1.23785e-05
				CHANNELS 6 Xposition Yposition Zposition Zrotation Xrotation Yrotation 
				JOINT Foot_L
				{
					OFFSET 40.9854 0.0 -1.26872e-05
					CHANNELS 6 Xposition Yposition Zposition Zrotation Xrotation Yrotation 
					JOINT Toes_L
					{
						OFFSET 11.7543 0.0 0.0
						CHANNELS 6 Xposition Yposition Zposition Zrotation Xrotation Yrotation 
						End Site
						{
							OFFSET 0.0 0.0 0.0
						}
					}
				}
			}
		}
		JOINT UpperLeg_R
		{
			OFFSET -2.19251 6.46944 0.0
			CHANNELS 6 Xposition Yposition Zposition Zrotation Xrotation Yrotation 
			JOINT LowerLeg_R
			{
				OFFSET -39.0811 -0.00228153 -0.0401928
				CHANNELS 6 Xposition Yposition Zposition Zrotation Xrotation Yrotation 
				JOINT Foot_R
				{
					OFFSET -40.9854 0.0 0.0
					CHANNELS 6 Xposition Yposition Zposition Zrotation Xrotation Yrotation 
					JOINT Toes_R
					{
						OFFSET -11.7543 0.0 0.0
						CHANNELS 6 Xposition Yposition Zposition Zrotation Xrotation Yrotation 
						End Site
						{
							OFFSET 0.0 0.0 0.0
						}
					}
				}
			}
		}
	}
}
MOTION
Frames:	6
Frame Time:	0.0333333
0.000000 0.000000 0.000000 0.000000 0.000000 -0.000000 -2.070110 89.967100 4.028370 89.830200 -5.353690 12.109300 15.735700 0.000005 -0.000001 82.284800 83.078600 -81.197000 8.984550 -0.406207 -0.000000 5.972620 -1.870480 2.270880 16.377300 -0.000001 -0.000001 31.208800 -10.641300 0.582451 6.456720 -0.000001 -0.000000 21.299100 -12.712700 4.029880 12.994200 -0.242716 4.980390 -88.604900 -3.486260 -68.174100 5.348090 -0.000007 -0.000001 -61.470600 -30.802600 -80.903800 24.328600 0.000019 0.000005 24.162200 9.498390 -69.804700 22.291600 -0.000001 0.000005 15.406800 5.284890 0.492087 12.994500 -0.242716 -4.980390 88.338000 9.556230 -80.086100 -5.348130 -0.000001 -0.000004 -63.770100 35.013400 -6.410020 -24.328900 0.000322 -0.000009 1.429600 4.672410 -17.045300 -22.291500 -0.000108 -0.000004 12.758600 5.400670 -2.959090 -2.192480 -6.469440 -0.000000 -173.047000 -12.996500 6.597730 39.081100 -0.000007 -0.000012 -0.246902 0.413420 30.846800 40.985400 -0.000006 -0.000013 -0.433565 5.641760 -74.682700 11.754300 -0.000000 0.000003 -0.000177 -0.001673 -16.640900 -2.192510 6.469440 -0.000001 172.321000 18.065700 -172.621000 -39.081100 -0.002282 -0.040193 -0.280291 0.478847 30.636100 -40.985400 0.000008 0.000006 3.874690 14.381800 -75.494500 -11.754300 -0.000006 -0.000006 -0.001152 -0.017548 -17.286700
0.000000 0.000000 0.000000 0.000000 0.000000 -0.000000 -2.036770 89.956600 4.067130 89.822000 -5.433980 12.147800 15.735700 0.000005 -0.000001 82.174400 83.146800 -81.098000 8.984550 -0.406207 -0.000000 5.833680 -1.879600 2.246260 16.377300 -0.000001 -0.000001 31.233500 -10.647800 0.637992 6.456720 -0.000001 -0.000000 21.465500 -12.716400 4.222380 12.994200 -0.242716 4.980390 -88.570900 -3.580970 -68.226900 5.348090 -0.000007 -0.000001 -61.457600 -30.694600 -80.762600 24.328600 0.000019 0.000005 24.201200 9.566050 -69.707700 22.291600 -0.000001 0.000005 15.416300 5.284450 0.504156 12.994500 -0.242716 -4.980390 88.354300 9.521270 -80.146900 -5.348130 -0.000001 -0.000004 -63.849200 35.020100 -6.312350 -24.328900 0.000322 -0.000009 1.461230 4.759010 -17.102300 -22.291500 -0.000108 -0.000004 12.722700 5.398850 -2.900150 -2.192480 -6.469440 -0.000000 -173.040000 -13.032500 6.656900 39.081100 -0.000007 -0.000012 -0.249375 0.417068 30.876700 40.985400 -0.000006 -0.000013 -0.420779 5.608880 -74.730200 11.754300 -0.000000 0.000003 -0.000197 -0.001829 -16.646600 -2.192510 6.469440 -0.000001 172.312000 17.982900 -172.582000 -39.081100 -0.002282 -0.040193 -0.278610 0.475551 30.660300 -40.985400 0.000008 0.000006 3.848340 14.366200 -75.518300 -11.754300 -0.000006 -0.000006 -0.001105 -0.016889 -17.260000
0.000000 0.000000 0.000000 0.000000 0.000000 -0.000000 -1.992310 89.949900 4.110110 89.821500 -5.527900 12.185300 15.735700 0.000005 -0.000001 82.110300 83.209500 -81.044700 8.984550 -0.406207 -0.000000 5.707170 -1.878750 2.222640 16.377300 -0.000001 -0.000001 31.242000 -10.616700 0.700233 6.456720 -0.000001 -0.000000 21.560000 -12.719700 4.433930 12.994200 -0.242716 4.980390 -88.548800 -3.646100 -68.278800 5.348090 -0.000007 -0.000001 -61.445300 -30.614800 -80.667300 24.328600 0.000019 0.000005 24.271000 9.610540 -69.682700 22.291600 -0.000001 0.000005 15.443200 5.284130 0.512895 12.994500 -0.242716 -4.980390 88.376300 9.468750 -80.223200 -5.348130 -0.000001 -0.000004 -63.946200 34.972600 -6.294580 -24.328900 0.000322 -0.000009 1.454060 4.730530 -17.119700 -22.291500 -0.000108 -0.000004 12.672900 5.399620 -2.925100 -2.192480 -6.469440 -0.000000 -173.070000 -13.058800 6.748500 39.081100 -0.000007 -0.000012 -0.245962 0.411501 30.868000 40.985400 -0.000006 -0.000013 -0.417252 5.504240 -74.776400 11.754300 -0.000000 0.000003 -0.000190 -0.001774 -16.644600 -2.192510 6.469440 -0.000001 172.277000 17.871800 -172.534000 -39.081100 -0.002282 -0.040193 -0.280290 0.478334 30.663000 -40.985400 0.000008 0.000006 3.815810 14.397000 -75.532900 -11.754300 -0.000006 -0.000006 -0.001030 -0.015838 -17.217300
0.000000 0.000000 0.000000 0.000000 0.000000 -0.000000 -1.958510 89.935400 4.150020 89.796400 -5.625920 12.258900 15.735700 0.000005 -0.000001 82.073900 83.245000 -81.018700 8.984550 -0.406207 -0.000000 5.635530 -1.878070 2.200780 16.377300 -0.000001 -0.000001 31.235200 -10.599600 0.778108 6.456720 -0.000001 -0.000000 21.575500 -12.715600 4.754840 12.994200 -0.242716 4.980390 -88.525300 -3.719780 -68.355700 5.348090 -0.000007 -0.000001 -61.448900 -30.613900 -80.627700 24.328600 0.000019 0.000005 24.231300 9.579020 -69.708900 22.291600 -0.000001 0.000005 15.421700 5.284820 0.493868 12.994500 -0.242716 -4.980390 88.388900 9.444890 -80.273800 -5.348130 -0.000001 -0.000004 -63.998600 34.975500 -6.367780 -24.328900 0.000322 -0.000009 1.457040 4.718500 -17.193700 -22.291500 -0.000108 -0.000004 12.720000 5.397730 -2.863740 -2.192480 -6.469440 -0.000000 -173.021000 -13.133500 6.849460 39.081100 -0.000007 -0.000012 -0.246778 0.412069 30.916800 40.985400 -0.000006 -0.000013 -0.396120 5.500290 -74.842200 11.754300 -0.000000 0.000003 -0.000194 -0.001802 -16.645600 -2.192510 6.469440 -0.000001 172.263000 17.791600 -172.461000 -39.081100 -0.002282 -0.040193 -0.280128 0.477413 30.697000 -40.985400 0.000008 0.000006 3.801400 14.423500 -75.563400 -11.754300 -0.000006 -0.000006 -0.001107 -0.016921 -17.261300
0.000000 0.000000 0.000000 0.000000 0.000000 -0.000000 -1.921170 89.935200 4.164480 89.772000 -5.705210 12.267300 15.735700 0.000005 -0.000001 81.995800 83.311700 -80.947400 8.984550 -0.406207 -0.000000 5.500650 -1.879010 2.184850 16.377300 -0.000001 -0.000001 31.225700 -10.580200 0.972221 6.456720 -0.000001 -0.000000 21.589500 -12.777100 4.998510 12.994200 -0.242716 4.980390 -88.479400 -3.843810 -68.397200 5.348090 -0.000007 -0.000001 -61.563600 -30.515700 -80.574500 24.328600 0.000019 0.000005 24.208500 9.513040 -69.816500 22.291600 -0.000001 0.000005 15.417400 5.285730 0.468811 12.994500 -0.242716 -4.980390 88.401700 9.441680 -80.346600 -5.348130 -0.000001 -0.000004 -64.053800 34.875600 -6.392280 -24.328900 0.000322 -0.000009 1.448130 4.659450 -17.298100 -22.291500 -0.000108 -0.000004 12.682100 5.398450 -2.887000 -2.192480 -6.469440 -0.000000 -173.024000 -13.142900 6.881550 39.081100 -0.000007 -0.000012 -0.247766 0.413742 30.915400 40.985400 -0.000006 -0.000013 -0.384968 5.442920 -74.865600 11.754300 -0.000000 0.000003 -0.000190 -0.001773 -16.644500 -2.192510 6.469440 -0.000001 172.276000 17.708300 -172.449000 -39.081100 -0.002282 -0.040193 -0.278714 0.475388 30.678200 -40.985400 0.000008 0.000006 3.769510 14.432600 -75.547000 -11.754300 -0.000006 -0.000006 -0.001082 -0.016566 -17.246800
0.000000 0.000000 0.000000 0.000000 0.000000 -0.000000 -1.882430 89.926600 4.181860 89.746500 -5.739940 12.299700 15.735700 0.000005 -0.000001 81.960000 83.361700 -80.921200 8.984550 -0.406207 -0.000000 5.400140 -1.874150 2.163930 16.377300 -0.000001 -0.000001 31.167200 -10.614300 1.168840 6.456720 -0.000001 -0.000000 21.680000 -12.909800 5.457280 12.994200 -0.242716 4.980390 -88.444400 -3.940720 -68.437800 5.348090 -0.000007 -0.000001 -61.619400 -30.371400 -80.578500 24.328600 0.000019 0.000005 24.031800 9.416600 -69.850300 22.291600 -0.000001 0.000005 15.520500 5.287780 0.412400 12.994500 -0.242716 -4.980390 88.413200 9.450570 -80.423700 -5.348130 -0.000001 -0.000004 -64.116800 34.691100 -6.414110 -24.328900 0.000322 -0.000009 1.480460 4.729200 -17.416400 -22.291500 -0.000108 -0.000004 12.583500 5.401630 -2.990310 -2.192480 -6.469440 -0.000000 -173.026000 -13.156600 6.903080 39.081100 -0.000007 -0.000012 -0.245570 0.409200 30.969300 40.985400 -0.000006 -0.000013 -0.371660 5.373470 -74.909600 11.754300 -0.000000 0.000003 -0.000187 -0.001749 -16.643700 -2.192510 6.469440 -0.000001 172.267000 17.666500 -172.420000 -39.081100 -0.002282 -0.040193 -0.280491 0.478031 30.696700 -40.985400 0.000008 0.000006 3.749460 14.455700 -75.556100 -11.754300 -0.000006 -0.000006 -0.001103 -0.016862 -17.258900
